<svg xmlns="http://www.w3.org/2000/svg" width="16" height="16" class="bi bi-person" viewBox="0 0 16 16" id="icon-close-id" >
    <path d="M866.646 157.397c8.24 8.246 13.332 19.638 13.332 32.217s-5.095 23.972-13.332 32.219v0l-290.179 290.156 290.179 290.179c8.246 8.248 13.352 19.65 13.352 32.235 0 10.944-3.854 20.988-10.287 28.85l0.062-0.081-3.131 3.462c-8.25 8.258-19.654 13.365-32.251 13.365-10.954 0-21.004-3.862-28.864-10.296l0.081 0.062-3.439-3.131-290.179-290.179-290.123 290.179c-8.25 8.256-19.654 13.363-32.251 13.363-25.182 0-45.598-20.413-45.598-45.598 0-12.591 5.099-23.981 13.35-32.235l290.156-290.179-290.156-290.123c-8.258-8.25-13.365-19.654-13.365-32.251 0-10.954 3.862-21.004 10.296-28.864l-0.062 0.081 3.131-3.462c8.25-8.258 19.654-13.365 32.251-13.365 10.954 0 21.004 3.862 28.864 10.296l-0.081-0.062 3.462 3.131 290.123 290.156 290.179-290.156c8.246-8.24 19.638-13.332 32.217-13.332s23.972 5.095 32.219 13.332v0z"></path>
</svg>